<?xml version="1.0" encoding="UTF-8" standalone="no"?>
<svg
   version="1.1"
   width="189"
   height="189"
   viewBox="0 0 189 189"
   xmlns="http://www.w3.org/2000/svg"
   xmlns:svg="http://www.w3.org/2000/svg">
  <defs
     id="defs1">
    <linearGradient
       x1="0"
       y1="0"
       x2="1"
       y2="0"
       gradientUnits="userSpaceOnUse"
       gradientTransform="matrix(4.6608734,-1.7635956,-1.7635956,-4.6608734,54.537109,78.274414)"
       spreadMethod="pad"
       id="linearGradient3">
      <stop
         style="stop-opacity:1;stop-color:#bdbcbc"
         offset="0"
         id="stop2" />
      <stop
         style="stop-opacity:1;stop-color:#7b7979"
         offset="1"
         id="stop3" />
    </linearGradient>
    <clipPath
       clipPathUnits="userSpaceOnUse"
       id="clipPath5">
      <path
         d="M 0,141.732 H 141.732 V 0 H 0 Z"
         id="path5" />
    </clipPath>
    <clipPath
       clipPathUnits="userSpaceOnUse"
       id="clipPath7">
      <path
         d="M 0,141.732 H 141.732 V 0 H 0 Z"
         id="path7" />
    </clipPath>
    <clipPath
       clipPathUnits="userSpaceOnUse"
       id="clipPath9">
      <path
         d="M 0,141.732 H 141.732 V 0 H 0 Z"
         id="path9" />
    </clipPath>
    <clipPath
       clipPathUnits="userSpaceOnUse"
       id="clipPath11">
      <path
         d="M 0,141.732 H 141.732 V 0 H 0 Z"
         id="path11" />
    </clipPath>
    <linearGradient
       x1="0"
       y1="0"
       x2="1"
       y2="0"
       gradientUnits="userSpaceOnUse"
       gradientTransform="matrix(1.8183289,-24.601517,-24.601517,-1.8183289,53.651855,131.67529)"
       spreadMethod="pad"
       id="linearGradient12">
      <stop
         style="stop-opacity:1;stop-color:#40b93c"
         offset="0"
         id="stop11" />
      <stop
         style="stop-opacity:1;stop-color:#1e4521"
         offset="1"
         id="stop12" />
    </linearGradient>
    <clipPath
       clipPathUnits="userSpaceOnUse"
       id="clipPath14">
      <path
         d="M 0,141.732 H 141.732 V 0 H 0 Z"
         id="path14" />
    </clipPath>
    <linearGradient
       x1="0"
       y1="0"
       x2="1"
       y2="0"
       gradientUnits="userSpaceOnUse"
       gradientTransform="matrix(-1.925354,-20.10939,-20.10939,1.925354,45.79248,123.16943)"
       spreadMethod="pad"
       id="linearGradient15">
      <stop
         style="stop-opacity:1;stop-color:#40b93c"
         offset="0"
         id="stop14" />
      <stop
         style="stop-opacity:1;stop-color:#1e4521"
         offset="1"
         id="stop15" />
    </linearGradient>
    <clipPath
       clipPathUnits="userSpaceOnUse"
       id="clipPath17">
      <path
         d="M 0,141.732 H 141.732 V 0 H 0 Z"
         id="path17" />
    </clipPath>
    <clipPath
       clipPathUnits="userSpaceOnUse"
       id="clipPath19">
      <path
         d="M 0,141.732 H 141.732 V 0 H 0 Z"
         id="path19" />
    </clipPath>
    <clipPath
       clipPathUnits="userSpaceOnUse"
       id="clipPath21">
      <path
         d="M 0,141.732 H 141.732 V 0 H 0 Z"
         id="path21" />
    </clipPath>
    <clipPath
       clipPathUnits="userSpaceOnUse"
       id="clipPath23">
      <path
         d="M 0,141.732 H 141.732 V 0 H 0 Z"
         id="path23" />
    </clipPath>
    <linearGradient
       x1="0"
       y1="0"
       x2="1"
       y2="0"
       gradientUnits="userSpaceOnUse"
       gradientTransform="matrix(4.6608429,-1.7635803,-1.7635803,-4.6608429,35.022949,26.701172)"
       spreadMethod="pad"
       id="linearGradient24">
      <stop
         style="stop-opacity:1;stop-color:#bdbcbc"
         offset="0"
         id="stop23" />
      <stop
         style="stop-opacity:1;stop-color:#7b7979"
         offset="1"
         id="stop24" />
    </linearGradient>
    <clipPath
       clipPathUnits="userSpaceOnUse"
       id="clipPath26">
      <path
         d="M 0,141.732 H 141.732 V 0 H 0 Z"
         id="path26" />
    </clipPath>
    <clipPath
       clipPathUnits="userSpaceOnUse"
       id="clipPath28">
      <path
         d="M 0,141.732 H 141.732 V 0 H 0 Z"
         id="path28" />
    </clipPath>
    <clipPath
       clipPathUnits="userSpaceOnUse"
       id="clipPath30">
      <path
         d="M 0,141.732 H 141.732 V 0 H 0 Z"
         id="path30" />
    </clipPath>
    <clipPath
       clipPathUnits="userSpaceOnUse"
       id="clipPath32">
      <path
         d="M 0,141.732 H 141.732 V 0 H 0 Z"
         id="path32" />
    </clipPath>
    <clipPath
       clipPathUnits="userSpaceOnUse"
       id="clipPath34">
      <path
         d="M 0,141.732 H 141.732 V 0 H 0 Z"
         id="path34" />
    </clipPath>
    <clipPath
       clipPathUnits="userSpaceOnUse"
       id="clipPath36">
      <path
         d="M 0,141.732 H 141.732 V 0 H 0 Z"
         id="path36" />
    </clipPath>
    <clipPath
       clipPathUnits="userSpaceOnUse"
       id="clipPath38">
      <path
         d="M 0,141.732 H 141.732 V 0 H 0 Z"
         id="path38" />
    </clipPath>
    <clipPath
       clipPathUnits="userSpaceOnUse"
       id="clipPath40">
      <path
         d="M 0,141.732 H 141.732 V 0 H 0 Z"
         id="path40" />
    </clipPath>
    <clipPath
       clipPathUnits="userSpaceOnUse"
       id="clipPath42">
      <path
         d="M 0,141.732 H 141.732 V 0 H 0 Z"
         id="path42" />
    </clipPath>
    <clipPath
       clipPathUnits="userSpaceOnUse"
       id="clipPath43">
      <path
         d="m 51.3267,125.226 h 8.5009 V 99.6108 h -8.5009 z"
         id="path43" />
    </clipPath>
    <clipPath
       clipPathUnits="userSpaceOnUse"
       id="clipPath45">
      <path
         d="M 0,141.732 H 141.732 V 0 H 0 Z"
         transform="matrix(1.3333333,0,0,-1.3333333,0,188.976)"
         id="path45" />
    </clipPath>
    <clipPath
       clipPathUnits="userSpaceOnUse"
       id="clipPath47">
      <path
         d="M 0,141.732 H 141.732 V 0 H 0 Z"
         id="path47" />
    </clipPath>
    <linearGradient
       x1="0"
       y1="0"
       x2="1"
       y2="0"
       gradientUnits="userSpaceOnUse"
       gradientTransform="matrix(-7.2736359,6.7926636,6.7926636,7.2736359,109.53125,44.375977)"
       spreadMethod="pad"
       id="linearGradient48">
      <stop
         style="stop-opacity:1;stop-color:#ffffff"
         offset="0"
         id="stop47" />
      <stop
         style="stop-opacity:1;stop-color:#fde5c8"
         offset="1"
         id="stop48" />
    </linearGradient>
    <clipPath
       clipPathUnits="userSpaceOnUse"
       id="clipPath50">
      <path
         d="M 0,141.732 H 141.732 V 0 H 0 Z"
         id="path50" />
    </clipPath>
  </defs>
  <g id="heilkundepraxis">
    <g id="group-MC0">
      <path
         id="path3"
         d="m 61.166,95.754 c 1.485,3.858 2.548,6.626 2.788,7.26 0.717,1.9 1.929,3.365 3.243,3.919 0.88,0.372 1.488,0.349 2.439,-0.066 1.446,-0.631 1.31,-1.054 1.31,-2.3 0,-1.189 -0.461,-2.544 -1.008,-3.846 -0.195,-0.465 -0.939,-2.196 -2.042,-4.747 l -1.72,-3.857 -17.48,-42.801 c -0.507,-0.437 -1.423,-1.24 -2.457,-2.215 0.007,0.019 0.015,0.044 0.022,0.065 0.17,0.377 0.318,0.768 0.41,1.202 l 0.038,0.236 c 0.437,1.601 0.831,3.781 0.831,6.453 0,1.347 -0.105,2.824 -0.351,4.408 0.128,0.333 10.056,26.103 12.634,32.797 z"
         transform="matrix(1.3333333,0,0,-1.3333333,0,188.976)"
         style="fill:url(#linearGradient3);stroke:none" />
      <path
         id="path4"
         d="m 54.163,53.741 c -0.439,-0.296 -0.878,-0.616 -1.334,-0.988 -0.894,-0.73 -2.34,-1.982 -3.204,-2.726 1.099,2.536 3.956,10.028 7.04,17.148 0.066,-0.357 0.491,-1.568 0.54,-1.933 0.008,-0.066 0.02,-0.133 0.028,-0.199 0.009,-0.375 0.047,-0.816 0.047,-0.816 l 0.078,-0.789 0.056,-0.733 c 0.194,-1.14 -0.294,-2.501 -0.767,-3.817 L 56.206,57.59 c -0.392,-1.303 -0.972,-2.649 -2.047,-3.845 z"
         style="fill:#bea7a5;fill-opacity:1;fill-rule:nonzero;stroke:none"
         transform="matrix(1.3333333,0,0,-1.3333333,0,188.976)"
         clip-path="url(#clipPath5)" />
      <path
         id="path6"
         d="m 56.849,57.397 0.431,1.263 c 0.349,0.974 0.73,2.041 0.824,3.058 0.504,-1.314 1.139,-2.375 2.396,-3.376 l 0.419,0.525 c -1.578,1.258 -2.077,2.588 -2.709,4.63 -0.117,0.377 -0.189,0.805 -0.254,1.247 0.242,-0.295 0.552,-0.562 1.028,-0.758 0.941,-0.384 1.989,-0.42 3.069,-0.423 l 0.003,0.671 c -1.011,0.004 -1.988,0.036 -2.817,0.374 -0.61,0.249 -0.821,0.508 -1.125,1.002 0,0 -0.867,1.937 -1.028,2.888 0.724,1.671 1.316,3.064 2.066,4.794 -0.141,0.181 1.296,-1.589 1.296,-1.589 0.561,-0.362 1.286,-0.558 1.796,-0.659 l 0.706,-0.128 c 0.94,-0.164 1.752,-0.304 2.598,-0.852 0.683,-0.442 1.278,-1.023 1.799,-1.736 0.11,-0.17 0.213,-0.34 0.336,-0.508 0.042,-0.056 0.079,-0.121 0.119,-0.181 0.452,-0.76 0.839,-1.64 1.157,-2.664 l 0.075,-0.3 0.142,0.027 C 67.959,63.23 66.822,62.074 65.73,61.199 63.919,59.749 61.812,58.336 59.286,56.882 l -1.382,-0.905 c -0.596,-0.414 -1.213,-0.844 -1.878,-1.163 -0.14,-0.067 -0.273,-0.142 -0.409,-0.212 0.514,0.843 0.935,1.804 1.232,2.795"
         style="fill:#bea7a5;fill-opacity:1;fill-rule:nonzero;stroke:none"
         transform="matrix(1.3333333,0,0,-1.3333333,0,188.976)"
         clip-path="url(#clipPath7)" />
      <path
         id="path8"
         d="m 47.938,67.275 -0.142,1.682 -0.027,0.268 -0.057,0.298 c -0.025,0.12 -0.076,0.343 -0.076,0.464 0,0.024 10e-4,0.043 0.006,0.057 0,-0.009 0.16,0.009 0.16,0.008 l 0.461,0.095 c 0.678,0.342 1.132,0.891 1.57,1.421 0.159,0.192 0.315,0.377 0.477,0.55 -0.042,-0.276 -0.085,-0.554 -0.136,-0.827 -0.243,-1.311 -0.454,-2.073 -1.017,-4.109 l -0.666,-2.429 c -0.42,-1.048 -0.903,-2.31 -1.48,-3.88 -0.119,-0.309 -0.218,-0.566 -0.294,-0.764 -0.042,0.132 -0.074,0.272 -0.126,0.393 0,10e-4 -0.172,0.375 -0.172,0.375 -0.079,0.165 -0.122,0.257 -0.122,0.356 0,0.128 0.073,0.266 0.238,0.58 l 0.516,1.207 0.127,0.335 c 0.483,1.245 0.771,2.248 0.771,3.495 0,0.138 -0.003,0.281 -0.011,0.425"
         style="fill:#bea7a5;fill-opacity:1;fill-rule:nonzero;stroke:none"
         transform="matrix(1.3333333,0,0,-1.3333333,0,188.976)"
         clip-path="url(#clipPath9)" />
      <path
         id="path10"
         d="m 57.718,92.69 c 0,0 1.4,0.727 1.948,1.033 -2.371,-6.161 -5.474,-14.217 -8.07,-20.954 0.182,0.774 0.352,1.562 0.467,2.383 1.019,4.372 2.432,10.614 3.315,15.267 0.067,0.356 0.156,0.713 0.259,1.071 0.698,0.344 1.397,0.774 2.081,1.2"
         style="fill:#fde5c8;fill-opacity:1;fill-rule:nonzero;stroke:none"
         transform="matrix(1.3333333,0,0,-1.3333333,0,188.976)"
         clip-path="url(#clipPath11)" />
      <path
         id="path12"
         d="m 50.612,94.629 c -0.083,0.208 -0.169,0.414 -0.259,0.62 -2.981,6.819 -3.49,11.352 -3.008,15.122 0.046,0.365 0.101,0.747 0.162,1.137 0.324,2.605 0.925,5.288 1.6,7.75 0.059,0.241 0.092,0.376 0.092,0.376 0,0 1.677,6.279 3.275,9.433 0.273,0.572 0.682,1.374 0.872,1.435 0.072,-0.022 0.295,-0.283 0.474,-0.493 l 0.179,-0.208 0.356,-0.406 c 1.535,-1.737 4.728,-5.353 7.783,-12.06 0.864,-1.898 1.224,-3.717 1.224,-5.475 0,-4.53 -2.394,-8.652 -4.731,-12.674 -1.736,-2.989 -3.376,-5.812 -3.913,-8.641 -0.6,-3.158 -1.444,-7.046 -2.242,-10.587 0.061,0.466 0.765,6.307 -0.872,11.629 -0.322,1.045 -0.636,2.06 -0.992,3.042"
         transform="matrix(1.3333333,0,0,-1.3333333,0,188.976)"
         style="fill:url(#linearGradient12);stroke:none" />
      <path
         id="path13"
         d="m 51.39,89.869 c 0.558,-2.432 0.848,-5.152 0.596,-8.403 l -0.041,0.497 c -0.189,2.597 -0.383,5.25 -1.074,7.708 z"
         style="fill:#fde5c8;fill-opacity:1;fill-rule:nonzero;stroke:none"
         transform="matrix(1.3333333,0,0,-1.3333333,0,188.976)"
         clip-path="url(#clipPath14)" />
      <path
         id="path15"
         d="m 44.849,91.381 -0.629,0.413 c -1.774,1.16 -3.306,2.163 -4.829,3.645 -1.598,1.557 -2.811,2.978 -3.918,5.251 -0.866,1.781 -1.296,3.729 -1.296,5.71 0,2.556 0.716,5.168 2.127,7.546 1.215,2.045 2.742,3.804 4.671,5.376 1.094,0.893 2.379,1.523 3.621,2.132 0.763,0.375 1.537,0.777 2.281,1.224 -0.038,-0.304 -0.068,-0.611 -0.204,-0.889 l -0.138,-0.376 c -1.785,-4.102 -2.669,-8.377 -2.669,-12.557 0,-5.551 1.559,-10.933 4.633,-15.51 2.181,-3.248 2.483,-7.409 2.776,-11.432 l 0.23,-2.82 c 0.029,-0.287 0.046,-0.572 0.057,-0.855 -0.095,-0.667 -0.189,-1.303 -0.282,-1.903 -0.016,1.083 -0.104,2.11 -0.274,3.025 l -0.298,1.952 c -0.253,1.821 -0.54,3.884 -1.245,5.354 -0.866,1.807 -2.951,3.62 -4.614,4.714"
         transform="matrix(1.3333333,0,0,-1.3333333,0,188.976)"
         style="fill:url(#linearGradient15);stroke:none" />
      <path
         id="path16"
         d="m 33.945,76.818 c 0,1.77 0.283,3.82 1.376,5.117 1.463,1.737 4.037,2.884 6.105,3.807 0.016,0.007 1.32,0.487 1.32,0.487 0.696,0.23 1.418,0.469 2.109,0.889 0.689,0.418 1.393,0.721 2.137,1.041 l 0.442,0.193 c 0.592,-0.635 1.102,-1.306 1.422,-1.975 0.661,-1.377 0.94,-3.384 1.186,-5.156 l 0.304,-1.982 c 0.326,-1.761 0.343,-4.02 0.075,-6.281 l -0.088,0.108 c -0.397,-0.318 -0.713,-0.7 -1.019,-1.07 -0.412,-0.499 -0.801,-0.97 -1.354,-1.248 l -0.185,-0.024 c -0.07,-0.003 -0.157,-0.012 -0.249,-0.031 l -0.239,1.453 c -0.216,1.369 -0.44,2.783 -0.791,4.185 -0.241,0.967 -0.506,1.9 -1.074,2.697 l -0.586,0.669 c -0.257,0.273 -0.735,0.781 -0.763,0.952 l -0.67,-0.06 c 0.032,-0.361 0.378,-0.752 0.944,-1.353 l 0.527,-0.599 c 0.502,-0.701 0.736,-1.533 0.97,-2.469 0.344,-1.373 0.565,-2.772 0.779,-4.126 L 47,69.652 c 0.017,-0.092 0.037,-0.186 0.057,-0.276 l 0.044,-0.219 0.027,-0.268 0.14,-1.647 c 0.066,-1.34 -0.201,-2.315 -0.716,-3.644 l -0.13,-0.342 -0.482,-1.13 c -0.007,-0.013 -0.012,-0.023 -0.019,-0.037 -0.037,0.052 -0.074,0.106 -0.111,0.162 l -0.414,0.524 -0.778,0.577 -0.207,0.134 c -0.472,0.317 -0.974,0.52 -1.461,0.717 l -1.057,0.488 -0.343,-0.578 1.148,-0.532 c 0.454,-0.185 0.925,-0.376 1.339,-0.653 l 0.215,-0.141 0.681,-0.497 c 0,-10e-4 0.319,-0.415 0.319,-0.415 0.176,-0.261 0.489,-0.867 0.647,-1.201 l 0.189,-0.438 c 0.345,-0.797 0.576,-1.914 0.673,-2.919 0.011,-0.141 0.024,-0.284 0.033,-0.423 0.003,-0.04 0.007,-0.083 0.009,-0.123 L 46.809,56.7 c 0.088,-1.484 0.049,-2.847 -0.069,-4.065 L 46.483,50.77 c -0.01,-0.061 -0.02,-0.127 -0.03,-0.186 l -0.244,-1.15 c -0.22,-0.927 -0.46,-1.684 -0.673,-2.261 -0.337,-0.675 -0.788,-1.304 -1.283,-1.988 -0.586,-0.815 -1.819,-2.519 -3.187,-3.636 -0.268,-0.198 -0.554,-0.403 -0.841,-0.596 -0.389,-0.226 -0.779,-0.385 -1.162,-0.445 0.148,0.097 0.288,0.201 0.404,0.305 l 0.104,0.091 c 0.354,0.313 0.456,0.415 0.679,0.936 0.317,0.744 0.476,1.589 0.498,2.656 0.001,0.082 0.002,0.163 0.002,0.243 0,0.785 -0.078,1.542 -0.231,2.257 -0.625,2.91 -1.828,4.531 -3.675,4.961 -0.077,2.568 -0.269,5.059 -0.497,7.274 l -0.11,1.849 -0.146,2.188 -0.37,2.053 -0.324,1.716 -0.592,3.276 c -0.278,1.405 -0.565,2.858 -0.736,4.377 -0.066,0.59 -0.124,1.331 -0.124,2.128"
         style="fill:#fde5c8;fill-opacity:1;fill-rule:nonzero;stroke:none"
         transform="matrix(1.3333333,0,0,-1.3333333,0,188.976)"
         clip-path="url(#clipPath17)" />
      <path
         id="path18"
         d="m 36.872,51.223 c 1.46,-0.436 2.448,-1.848 2.989,-4.368 0.144,-0.667 0.217,-1.378 0.217,-2.115 0,-0.076 -0.001,-0.153 -0.003,-0.229 -0.02,-0.993 -0.157,-1.736 -0.444,-2.407 -0.172,-0.402 -0.203,-0.429 -0.504,-0.696 l -0.106,-0.094 c -0.323,-0.286 -0.87,-0.603 -1.249,-0.627 -0.225,-0.015 -0.552,0.09 -0.776,0.249 -0.528,0.375 -0.715,1.2 -0.715,2.057 0,0.34 0.029,0.685 0.078,1.007 l 0.105,0.668 c 0.166,1.041 0.337,2.117 0.389,3.166 0.039,0.805 0.056,1.605 0.056,2.398 0,0.338 -0.031,0.655 -0.037,0.991"
         style="fill:#feebe3;fill-opacity:1;fill-rule:nonzero;stroke:none"
         transform="matrix(1.3333333,0,0,-1.3333333,0,188.976)"
         clip-path="url(#clipPath19)" />
      <path
         id="path20"
         d="m 29.88,33.611 0.238,0.695 c 0.316,1.03 1.108,4.702 1.142,4.862 0,0 0.073,0.334 0.11,0.497 0.031,-0.187 0.062,-0.368 0.099,-0.585 0.248,-1.441 0.555,-3.236 0.555,-4.192 0,-1.559 -1.425,-1.816 -2.316,-1.825 0.025,0.132 0.099,0.349 0.172,0.548"
         style="fill:#feebe3;fill-opacity:1;fill-rule:nonzero;stroke:none"
         transform="matrix(1.3333333,0,0,-1.3333333,0,188.976)"
         clip-path="url(#clipPath21)" />
      <path
         id="path22"
         d="m 31.481,30.502 c -0.885,0.316 -1.521,1.338 -1.731,1.893 1.845,0.033 2.947,0.957 2.947,2.493 0,1.012 -0.301,2.762 -0.566,4.307 -0.156,0.91 -0.402,1.963 -0.429,2.332 0.384,1.697 0.779,3.452 0.944,5.286 l 0.165,1.737 c 0.209,2.14 0.425,4.352 0.425,6.488 v 0.087 c 0,2.467 0.22,4.947 0.433,7.346 l 0.071,0.81 0.088,1.148 c 0.068,0.976 0.138,1.986 0.327,2.932 l 0.19,1.586 c 0.003,0.037 0.004,0.065 0.007,0.101 l 0.381,-2.109 0.33,-1.755 0.362,-1.998 0.14,-2.132 0.114,-1.891 c 0.277,-2.7 0.558,-5.76 0.558,-8.933 0,-0.782 -0.017,-1.571 -0.055,-2.363 -0.05,-1.012 -0.219,-2.07 -0.381,-3.093 l -0.106,-0.672 c -0.042,-0.274 -0.089,-0.678 -0.089,-1.127 0,-0.913 0.138,-2.098 1.001,-2.587 0.807,-0.456 2.114,-0.514 2.725,-0.514 -0.318,-0.571 -0.685,-1.302 -0.963,-1.898 L 38.338,37.918 38.31,37.848 C 38.265,37.75 38.216,37.646 38.178,37.561 l -0.174,-0.389 -1.257,-3.059 -0.156,-0.401 -0.859,-2.11 C 35.699,31.521 35.666,31.44 35.632,31.36 L 35.463,31.226 C 34.385,30.368 32.71,30.063 31.481,30.502"
         style="fill:#fde5c8;fill-opacity:1;fill-rule:nonzero;stroke:none"
         transform="matrix(1.3333333,0,0,-1.3333333,0,188.976)"
         clip-path="url(#clipPath23)" />
      <path
         id="path24"
         d="M 40.643,26.208 C 40.593,26.104 40.16,25.205 40.153,25.189 38.958,22.791 37.37,20.564 35.968,18.6 L 35.732,18.27 33.43,14.957 31.201,11.391 c 0,0 -0.016,-0.032 -0.034,-0.066 0.011,0.045 0.394,1.571 0.394,1.571 0.852,3.395 1.732,6.907 2.45,10.403 l 0.776,3.475 c 0.291,1.173 0.686,2.285 1.123,3.398 l 0.107,0.266 0.171,0.441 c 0.165,0.402 0.332,0.807 0.503,1.217 l 0.862,2.117 c 0,10e-4 0.133,0.344 0.133,0.344 l 1.236,3.013 c 0.024,0.051 0.05,0.106 0.076,0.162 0.195,0.373 0.928,1.779 1.199,2.301 0.05,0.08 0.092,0.142 0.126,0.185 0.106,0.067 0.21,0.139 0.314,0.211 0.311,0.184 0.616,0.395 0.911,0.64 -0.06,-0.133 -0.101,-0.265 -0.156,-0.399 -0.708,-1.43 -1.008,-2.991 -0.873,-4.459 0.034,-0.698 0.158,-1.305 0.368,-1.762 0.049,-0.105 0.1,-0.199 0.151,-0.297 0.045,-0.104 0.08,-0.214 0.131,-0.316 0.236,-0.469 0.627,-0.924 1.088,-1.291 0.039,-0.033 0.077,-0.066 0.116,-0.097 0.028,-0.02 0.055,-0.044 0.084,-0.064 0.205,-0.155 0.39,-0.268 0.537,-0.341 -0.683,-1.892 -1.511,-3.968 -2.351,-5.835"
         transform="matrix(1.3333333,0,0,-1.3333333,0,188.976)"
         style="fill:url(#linearGradient24);stroke:none" />
      <path
         id="path25"
         d="m 42.502,35.947 c 0.785,2.535 2.731,5.131 2.951,5.42 0.205,0.269 0.369,0.389 0.565,0.414 0.508,0.067 1.439,-0.449 3.015,-1.674 1.348,-1.046 2.044,-2.412 2.253,-2.874 -0.052,-0.062 -0.123,-0.146 -0.205,-0.241 -1.743,-1.877 -4.29,-3.934 -6.336,-4.371 -0.627,-0.134 -1.126,-0.013 -1.591,0.248 -0.048,0.035 -0.099,0.066 -0.145,0.107 -0.667,0.596 -0.871,1.79 -0.507,2.971"
         style="fill:#feebe3;fill-opacity:1;fill-rule:nonzero;stroke:none"
         transform="matrix(1.3333333,0,0,-1.3333333,0,188.976)"
         clip-path="url(#clipPath26)" />
      <path
         id="path27"
         d="m 46.734,28.896 -0.277,-0.439 c -0.995,-1.591 -3.833,-2.309 -5.221,-2.572 0.015,0.033 0.031,0.069 0.045,0.103 0.795,1.7 1.552,3.564 2.383,5.861 0.264,-0.056 0.531,-0.081 0.795,-0.042 0.291,0.043 0.583,0.125 0.874,0.229 0.246,0.069 0.504,0.155 0.785,0.278 1.14,0.499 2.168,1.19 3.035,1.887 -0.147,-0.418 -0.29,-0.82 -0.29,-0.82 l -0.668,-1.867 c -0.399,-0.936 -0.914,-1.752 -1.461,-2.618"
         style="fill:#fde5c8;fill-opacity:1;fill-rule:nonzero;stroke:none"
         transform="matrix(1.3333333,0,0,-1.3333333,0,188.976)"
         clip-path="url(#clipPath28)" />
      <path
         id="path29"
         d="M 56.648,40.352 C 56.639,40.33 55.583,38.063 55.583,38.063 l -0.534,-1.096 -0.475,-1.073 c -0.362,-0.847 -0.705,-1.648 -1.22,-2.39 -1.147,-1.65 -3.149,-3.276 -5.032,-3.258 0.174,0.322 0.342,0.653 0.491,1.005 l 0.689,1.921 0.599,1.697 c 0,0 0.041,0.109 0.085,0.226 0.924,0.863 1.535,1.602 1.708,1.819 0.043,0.047 0.086,0.095 0.129,0.143 l 1.448,1.563 c 1.101,1.114 2.255,1.941 3.52,2.641 -0.062,-0.193 -0.167,-0.48 -0.343,-0.909"
         style="fill:#bea7a5;fill-opacity:1;fill-rule:nonzero;stroke:none"
         transform="matrix(1.3333333,0,0,-1.3333333,0,188.976)"
         clip-path="url(#clipPath30)" />
      <path
         id="path31"
         d="m 96.678,42.588 c -0.81,0.617 -2.518,1.419 -2.54,1.43 -1.488,0.666 -2.827,1.219 -4.095,1.691 -1.545,0.576 -3.107,1.035 -4.875,1.428 l 2.295,0.033 0.781,0.029 2.173,0.156 0.429,0.073 c 0.669,0.117 1.497,0.259 2.054,0.021 0.005,-0.013 0.291,0.612 0.291,0.612 -0.744,0.33 -1.697,0.163 -2.462,0.029 l -0.412,-0.07 -2.094,-0.149 -0.792,-0.029 -4.689,-0.068 -0.996,10e-4 c -0.144,0.024 -0.279,0.047 -0.426,0.069 -0.14,0.021 -0.271,0.035 -0.41,0.053 0.047,0.011 0.101,0.02 0.143,0.032 l 1.324,0.436 1.993,0.603 0.931,0.159 c 0.975,0.15 2.081,0.322 2.653,0.715 l -0.38,0.554 C 87.129,50.09 86.059,49.924 85.198,49.791 L 84.232,49.625 82.154,49 80.866,48.574 c -0.811,-0.233 -1.639,-0.359 -2.432,-0.442 -0.804,0.035 -1.59,0.034 -2.384,-0.012 l -0.862,-0.046 c -1.641,-0.085 -3.5,-0.181 -5.061,-0.567 -2.027,-0.503 -3.879,-1.366 -5.67,-2.203 l -3.191,-1.405 c -3.242,-1.258 -5.909,-2.412 -8.273,-4.807 0,0 -0.801,-0.864 -1.22,-1.317 -0.332,0.661 -1.063,1.881 -2.328,2.864 -1.799,1.396 -2.784,1.904 -3.514,1.81 -0.491,-0.064 -0.8,-0.394 -1.013,-0.676 -0.37,-0.484 -2.256,-3.036 -3.057,-5.628 -0.187,-0.604 -0.24,-1.204 -0.183,-1.758 -0.01,0.016 -0.019,0.034 -0.028,0.051 -0.256,0.595 -0.405,1.245 -0.464,1.916 -0.035,1.106 0.178,2.533 0.792,4.04 0.112,0.225 0.23,0.45 0.364,0.667 l 1.578,2.047 c 2.595,3.51 5.896,6.318 9.334,9.123 1.04,0.85 1.985,1.459 3.064,1.977 0.713,0.343 1.352,0.787 1.97,1.218 l 1.335,0.873 c 2.554,1.472 4.69,2.904 6.527,4.375 1.524,1.221 3.124,2.959 4.89,5.312 0.668,0.889 1.271,1.971 1.845,3.307 l 0.396,0.849 c 0.429,0.883 0.914,1.884 0.955,2.816 l -0.671,0.029 C 73.53,72.195 73.076,71.26 72.676,70.435 l -0.41,-0.876 c -0.552,-1.288 -1.129,-2.325 -1.763,-3.169 -0.222,-0.295 -0.44,-0.579 -0.656,-0.856 -0.488,0.718 -1.025,2.206 -1.255,3.068 -0.285,1.066 -0.157,2.285 -0.034,3.462 l 0.046,0.456 c 0.267,2.708 1.251,5.25 2.415,8.054 l 0.361,0.849 c 0.44,1.025 0.895,2.086 1.167,3.144 l -0.652,0.167 C 71.638,83.727 71.193,82.69 70.762,81.688 l -0.364,-0.857 c -1.184,-2.854 -2.187,-5.445 -2.463,-8.246 l -0.046,-0.45 c -0.112,-1.075 -0.234,-2.279 -0.018,-3.381 -1.291,2.025 -1.663,4.25 -1.784,6.922 -0.144,3.165 0.504,6.624 1.733,9.252 l -0.609,0.285 c -1.273,-2.723 -1.943,-6.299 -1.795,-9.567 0.089,-1.971 0.313,-3.712 0.919,-5.323 -0.139,0.106 -0.276,0.212 -0.422,0.306 -0.961,0.622 -1.878,0.781 -2.848,0.949 l -0.692,0.125 c -0.451,0.089 -1.089,0.26 -1.56,0.565 l -0.499,0.512 c -0.102,0.126 -0.686,0.919 -0.801,1.033 3.069,7.842 6.298,16.165 8.582,20.926 1.229,-0.209 3.445,-1.747 4.661,-2.619 l 1.82,-1.209 6.977,-3.529 2.949,-1.72 0.383,-0.228 1.72,-0.897 c 0.759,-0.368 1.543,-0.747 2.231,-1.232 1.536,-1.082 2.969,-2.413 4.355,-3.7 l 1.385,-1.273 c 1.473,-1.33 2.586,-2.819 3.765,-4.396 l 1.488,-1.947 1.58,-2.156 1.278,-1.774 3.294,-3.947 1.268,-1.73 5.468,-6.696 z"
         style="fill:#fde5c8;fill-opacity:1;fill-rule:nonzero;stroke:none"
         transform="matrix(1.3333333,0,0,-1.3333333,0,188.976)"
         clip-path="url(#clipPath32)" />
      <path
         id="path33"
         d="m 67.922,84.78 c -0.033,-0.655 -0.565,-1.311 -0.76,-1.96 -0.77,-2.561 -0.93,-5.299 -0.886,-7.958 0.02,-1.178 0.237,-2.334 0.589,-3.456 0.211,-0.671 0.454,-1.329 0.716,-1.982 0.125,1.569 -0.315,3.143 -0.315,4.715 0,0.924 -0.092,1.841 -0.036,2.767 0.115,1.896 0.559,3.783 1.023,5.62 0.101,0.405 0.127,0.825 0.23,1.222 0.102,0.397 0.337,0.762 0.371,1.166 -0.356,0.054 -0.877,-0.289 -1.025,-0.603"
         style="fill:#bea7a5;fill-opacity:1;fill-rule:nonzero;stroke:none"
         transform="matrix(1.3333333,0,0,-1.3333333,0,188.976)"
         clip-path="url(#clipPath34)" />
      <path
         id="path35"
         d="m 68.871,68.107 c -0.45,1.231 -0.22,2.562 0.001,3.814 0.34,1.933 0.704,3.869 1.335,5.731 0.325,0.96 0.725,1.894 1.066,2.849 0.326,0.915 0.544,1.875 0.985,2.745 -0.137,-0.321 -0.099,-0.692 -0.119,-1.033 -0.135,-2.303 -1.205,-4.468 -1.863,-6.65 -0.2,-0.661 -0.379,-1.328 -0.516,-2.003 -0.145,-0.715 -0.243,-1.439 -0.269,-2.169 -0.046,-1.282 0.093,-2.646 -0.368,-3.871 0.093,0.322 -0.244,0.572 -0.299,0.87"
         style="fill:#bea7a5;fill-opacity:1;fill-rule:nonzero;stroke:none"
         transform="matrix(1.3333333,0,0,-1.3333333,0,188.976)"
         clip-path="url(#clipPath36)" />
      <path
         id="path37"
         d="m 81.729,47.884 c 1.27,0 2.538,0.12 3.808,0.1 1.248,-0.019 2.493,0.063 3.738,0.115 0.612,0.025 1.25,0.048 1.871,0.024 0.379,-0.016 1.18,-0.221 1.463,0.125 -1.396,0.555 -2.945,0.502 -4.443,0.329 C 86.653,48.4 85.002,48.423 83.501,48.27 83.096,48.227 82.02,48.255 81.822,47.93"
         style="fill:#bea7a5;fill-opacity:1;fill-rule:nonzero;stroke:none"
         transform="matrix(1.3333333,0,0,-1.3333333,0,188.976)"
         clip-path="url(#clipPath38)" />
      <path
         id="path39"
         d="m 42.454,26.344 c 0.662,-0.05 1.48,0.474 2.028,0.796 1.686,0.991 2.693,2.591 3.498,4.328 0.288,0.621 0.541,1.264 0.743,1.918 -0.039,-0.124 -0.61,-0.464 -0.733,-0.573 -0.263,-0.227 -0.536,-0.458 -0.87,-0.573 -0.321,-0.11 -0.696,-0.094 -0.952,-0.352 -0.359,-0.36 -0.352,-1.008 -0.501,-1.47 -0.174,-0.533 -0.444,-1.028 -0.754,-1.491 -0.634,-0.95 -1.448,-1.755 -2.225,-2.583"
         style="fill:#bea7a5;fill-opacity:1;fill-rule:nonzero;stroke:none"
         transform="matrix(1.3333333,0,0,-1.3333333,0,188.976)"
         clip-path="url(#clipPath40)" />
      <path
         id="path41"
         d="m 52.166,71.145 c 0.022,0.215 0.033,0.187 0.078,0.395 0.137,0.657 8.512,22.662 8.737,23.293 0.268,0.75 0.555,1.492 0.85,2.23 0.487,1.226 0.992,2.444 1.457,3.678 0.432,1.146 0.88,2.305 1.626,3.288 0.55,0.727 0.989,1.493 1.839,1.876 0.534,0.241 1.084,0.493 1.668,0.574 0.199,0.028 0.677,0.095 0.844,-0.062 0.145,-0.137 0.075,-0.548 -0.068,-0.718 -0.122,-0.146 -0.289,-0.273 -0.447,-0.376 -0.355,-0.227 -0.847,-0.284 -1.26,-0.418 -0.613,-0.2 -0.899,-0.398 -1.405,-0.8 -1.661,-1.319 -2.218,-3.48 -2.975,-5.36 -0.444,-1.106 -0.897,-2.212 -1.268,-3.346 -0.272,-0.831 -8.814,-22.994 -9.067,-23.83 -0.044,-0.147 -0.462,-0.755 -0.651,-0.676 z"
         style="fill:#deddde;fill-opacity:1;fill-rule:nonzero;stroke:none"
         transform="matrix(1.3333333,0,0,-1.3333333,0,188.976)"
         clip-path="url(#clipPath42)" />
      <g
         opacity="0.800003"
         id="g44"
         clip-path="url(#clipPath45)">
        <path
           d="m 51.327,124.527 c 11.63,-11.711 6.914,-24.782 6.862,-24.916 l 1.124,2.016 c 0.054,0.138 3.404,12.334 -7.717,23.599 z"
           style="fill:#231f20;fill-opacity:1;fill-rule:nonzero;stroke:none"
           transform="matrix(1.3333333,0,0,-1.3333333,0,188.976)"
           clip-path="url(#clipPath43)"
           id="path44" />
      </g>
      <path
         id="path46"
         d="m 96.678,42.588 c -0.81,0.617 -2.518,1.419 -2.54,1.43 -1.488,0.666 -2.827,1.219 -4.095,1.691 -1.545,0.576 -3.107,1.035 -4.875,1.428 l 2.295,0.033 0.781,0.029 2.173,0.156 0.429,0.073 c 0.669,0.117 1.497,0.259 2.054,0.021 0.005,-0.013 0.291,0.612 0.291,0.612 -0.744,0.33 -1.697,0.163 -2.462,0.029 l -0.412,-0.07 -2.094,-0.149 -0.792,-0.029 -4.689,-0.068 -0.996,10e-4 c -0.144,0.024 -0.279,0.047 -0.426,0.069 -0.14,0.021 -0.271,0.035 -0.41,0.053 0.047,0.011 0.101,0.02 0.143,0.032 l 1.324,0.436 1.993,0.603 0.931,0.159 c 0.975,0.15 2.081,0.322 2.653,0.715 l -0.38,0.554 C 87.129,50.09 86.059,49.924 85.198,49.791 L 84.232,49.625 82.154,49 80.866,48.574 c -0.811,-0.233 -1.639,-0.359 -2.432,-0.442 -0.804,0.035 -1.59,0.034 -2.384,-0.012 l -0.862,-0.046 c -1.641,-0.085 -3.5,-0.181 -5.061,-0.567 -2.027,-0.503 -3.879,-1.366 -5.67,-2.203 l -3.191,-1.405 c -3.242,-1.258 -5.909,-2.412 -8.273,-4.807 0,0 -0.801,-0.864 -1.22,-1.317 -0.332,0.661 -1.063,1.881 -2.328,2.864 -1.799,1.396 -2.784,1.904 -3.514,1.81 -0.491,-0.064 -0.8,-0.394 -1.013,-0.676 -0.37,-0.484 -2.256,-3.036 -3.057,-5.628 -0.187,-0.604 -0.24,-1.204 -0.183,-1.758 -0.01,0.016 -0.019,0.034 -0.028,0.051 -0.256,0.595 -0.405,1.245 -0.464,1.916 -0.035,1.106 0.178,2.533 0.792,4.04 0.112,0.225 0.23,0.45 0.364,0.667 l 1.578,2.047 c 2.595,3.51 5.896,6.318 9.334,9.123 1.04,0.85 1.985,1.459 3.064,1.977 0.713,0.343 1.352,0.787 1.97,1.218 l 1.335,0.873 c 2.554,1.472 4.69,2.904 6.527,4.375 1.524,1.221 3.124,2.959 4.89,5.312 0.668,0.889 1.271,1.971 1.845,3.307 l 0.396,0.849 c 0.429,0.883 0.914,1.884 0.955,2.816 l -0.671,0.029 C 73.53,72.195 73.076,71.26 72.676,70.435 l -0.41,-0.876 c -0.552,-1.288 -1.129,-2.325 -1.763,-3.169 -0.222,-0.295 -0.44,-0.579 -0.656,-0.856 -0.488,0.718 -1.025,2.206 -1.255,3.068 -0.285,1.066 -0.157,2.285 -0.034,3.462 l 0.046,0.456 c 0.267,2.708 1.251,5.25 2.415,8.054 l 0.361,0.849 c 0.44,1.025 0.895,2.086 1.167,3.144 l -0.652,0.167 C 71.638,83.727 71.193,82.69 70.762,81.688 l -0.364,-0.857 c -1.184,-2.854 -2.187,-5.445 -2.463,-8.246 l -0.046,-0.45 c -0.112,-1.075 -0.234,-2.279 -0.018,-3.381 -1.291,2.025 -1.663,4.25 -1.784,6.922 -0.144,3.165 0.504,6.624 1.733,9.252 l -0.609,0.285 c -1.273,-2.723 -1.943,-6.299 -1.795,-9.567 0.089,-1.971 0.313,-3.712 0.919,-5.323 -0.139,0.106 -0.276,0.212 -0.422,0.306 -0.961,0.622 -1.878,0.781 -2.848,0.949 l -0.692,0.125 c -0.451,0.089 -1.089,0.26 -1.56,0.565 l -0.499,0.512 c -0.102,0.126 -0.686,0.919 -0.801,1.033 3.069,7.842 6.298,16.165 8.582,20.926 1.229,-0.209 3.445,-1.747 4.661,-2.619 l 1.82,-1.209 6.977,-3.529 2.949,-1.72 0.383,-0.228 1.72,-0.897 c 0.759,-0.368 1.543,-0.747 2.231,-1.232 1.536,-1.082 2.969,-2.413 4.355,-3.7 l 1.385,-1.273 c 1.473,-1.33 2.586,-2.819 3.765,-4.396 l 1.488,-1.947 1.58,-2.156 1.278,-1.774 3.294,-3.947 1.268,-1.73 5.468,-6.696 z M 56.648,40.352 C 56.639,40.33 55.583,38.063 55.583,38.063 l -0.534,-1.096 -0.475,-1.073 c -0.362,-0.847 -0.705,-1.648 -1.22,-2.39 -1.147,-1.65 -3.149,-3.276 -5.032,-3.258 0.174,0.322 0.342,0.653 0.491,1.005 l 0.689,1.921 0.599,1.697 c 0,0 0.041,0.109 0.085,0.226 0.924,0.863 1.535,1.602 1.708,1.819 0.043,0.047 0.086,0.095 0.129,0.143 l 1.448,1.563 c 1.101,1.114 2.255,1.941 3.52,2.641 -0.062,-0.193 -0.167,-0.48 -0.343,-0.909 M 46.734,28.896 46.457,28.457 c -0.995,-1.591 -3.833,-2.309 -5.221,-2.572 0.015,0.033 0.031,0.069 0.045,0.103 0.795,1.7 1.552,3.564 2.383,5.861 0.264,-0.056 0.531,-0.081 0.795,-0.042 0.291,0.043 0.583,0.125 0.874,0.229 0.246,0.069 0.504,0.155 0.785,0.278 1.14,0.499 2.168,1.19 3.035,1.887 -0.147,-0.418 -0.29,-0.82 -0.29,-0.82 l -0.668,-1.867 c -0.399,-0.936 -0.914,-1.752 -1.461,-2.618 m -4.232,7.051 c 0.785,2.535 2.731,5.131 2.951,5.42 0.205,0.269 0.369,0.389 0.565,0.414 0.508,0.067 1.439,-0.449 3.015,-1.674 1.348,-1.046 2.044,-2.412 2.253,-2.874 -0.052,-0.062 -0.123,-0.146 -0.205,-0.241 -1.743,-1.877 -4.29,-3.934 -6.336,-4.371 -0.627,-0.134 -1.126,-0.013 -1.591,0.248 -0.048,0.035 -0.099,0.066 -0.145,0.107 -0.667,0.596 -0.871,1.79 -0.507,2.971 M 40.643,26.208 C 40.593,26.104 40.16,25.205 40.153,25.189 38.958,22.791 37.37,20.564 35.968,18.6 L 35.732,18.27 33.43,14.957 31.201,11.391 c 0,0 -0.016,-0.032 -0.034,-0.066 0.011,0.045 0.394,1.571 0.394,1.571 0.852,3.395 1.732,6.907 2.45,10.403 l 0.776,3.475 c 0.291,1.173 0.686,2.285 1.123,3.398 l 0.107,0.266 0.171,0.441 c 0.165,0.402 0.332,0.807 0.503,1.217 l 0.862,2.117 c 0,10e-4 0.133,0.344 0.133,0.344 l 1.236,3.013 c 0.024,0.051 0.05,0.106 0.076,0.162 0.195,0.373 0.928,1.779 1.199,2.301 0.05,0.08 0.092,0.142 0.126,0.185 0.106,0.067 0.21,0.139 0.314,0.211 0.311,0.184 0.616,0.395 0.911,0.64 -0.06,-0.133 -0.101,-0.265 -0.156,-0.399 -0.708,-1.43 -1.008,-2.991 -0.873,-4.459 0.034,-0.698 0.158,-1.305 0.368,-1.762 0.049,-0.105 0.1,-0.199 0.151,-0.297 0.045,-0.104 0.08,-0.214 0.131,-0.316 0.236,-0.469 0.627,-0.924 1.088,-1.291 0.039,-0.033 0.077,-0.066 0.116,-0.097 0.028,-0.02 0.055,-0.044 0.084,-0.064 0.205,-0.155 0.39,-0.268 0.537,-0.341 -0.683,-1.892 -1.511,-3.968 -2.351,-5.835 m -9.162,4.294 c -0.885,0.316 -1.521,1.338 -1.731,1.893 1.845,0.033 2.947,0.957 2.947,2.493 0,1.012 -0.301,2.762 -0.566,4.307 -0.156,0.91 -0.402,1.963 -0.429,2.332 0.384,1.697 0.779,3.452 0.944,5.286 l 0.165,1.737 c 0.209,2.14 0.425,4.352 0.425,6.488 v 0.087 c 0,2.467 0.22,4.947 0.433,7.346 l 0.071,0.81 0.088,1.148 c 0.068,0.976 0.138,1.986 0.327,2.932 l 0.19,1.586 c 0.003,0.037 0.004,0.065 0.007,0.101 l 0.381,-2.109 0.33,-1.755 0.362,-1.998 0.14,-2.132 0.114,-1.891 c 0.277,-2.7 0.558,-5.76 0.558,-8.933 0,-0.782 -0.017,-1.571 -0.055,-2.363 -0.05,-1.012 -0.219,-2.07 -0.381,-3.093 l -0.106,-0.672 c -0.042,-0.274 -0.089,-0.678 -0.089,-1.127 0,-0.913 0.138,-2.098 1.001,-2.587 0.807,-0.456 2.114,-0.514 2.725,-0.514 -0.318,-0.571 -0.685,-1.302 -0.963,-1.898 L 38.338,37.918 38.31,37.848 C 38.265,37.75 38.216,37.646 38.178,37.561 l -0.174,-0.389 -1.257,-3.059 -0.156,-0.401 -0.859,-2.11 C 35.699,31.521 35.666,31.44 35.632,31.36 L 35.463,31.226 C 34.385,30.368 32.71,30.063 31.481,30.502 m -1.601,3.109 0.238,0.695 c 0.316,1.03 1.108,4.702 1.142,4.862 0,0 0.073,0.334 0.11,0.497 0.031,-0.187 0.062,-0.368 0.099,-0.585 0.248,-1.441 0.555,-3.236 0.555,-4.192 0,-1.559 -1.425,-1.816 -2.316,-1.825 0.025,0.132 0.099,0.349 0.172,0.548 m 6.992,17.612 c 1.46,-0.436 2.448,-1.848 2.989,-4.368 0.144,-0.667 0.217,-1.378 0.217,-2.115 0,-0.076 -0.001,-0.153 -0.003,-0.229 -0.02,-0.993 -0.157,-1.736 -0.444,-2.407 -0.172,-0.402 -0.203,-0.429 -0.504,-0.696 l -0.106,-0.094 c -0.323,-0.286 -0.87,-0.603 -1.249,-0.627 -0.225,-0.015 -0.552,0.09 -0.776,0.249 -0.528,0.375 -0.715,1.2 -0.715,2.057 0,0.34 0.029,0.685 0.078,1.007 l 0.105,0.668 c 0.166,1.041 0.337,2.117 0.389,3.166 0.039,0.805 0.056,1.605 0.056,2.398 0,0.338 -0.031,0.655 -0.037,0.991 m -2.927,25.595 c 0,1.77 0.283,3.82 1.376,5.117 1.463,1.737 4.037,2.884 6.105,3.807 0.016,0.007 1.32,0.487 1.32,0.487 0.696,0.23 1.418,0.469 2.109,0.889 0.689,0.418 1.393,0.721 2.137,1.041 l 0.442,0.193 c 0.592,-0.635 1.102,-1.306 1.422,-1.975 0.661,-1.377 0.94,-3.384 1.186,-5.156 l 0.304,-1.982 c 0.326,-1.761 0.343,-4.02 0.075,-6.281 l -0.088,0.108 c -0.397,-0.318 -0.713,-0.7 -1.019,-1.07 -0.412,-0.499 -0.801,-0.97 -1.354,-1.248 l -0.185,-0.024 c -0.07,-0.003 -0.157,-0.012 -0.249,-0.031 l -0.239,1.453 c -0.216,1.369 -0.44,2.783 -0.791,4.185 -0.241,0.967 -0.506,1.9 -1.074,2.697 l -0.586,0.669 c -0.257,0.273 -0.735,0.781 -0.763,0.952 l -0.67,-0.06 c 0.032,-0.361 0.378,-0.752 0.944,-1.353 l 0.527,-0.599 c 0.502,-0.701 0.736,-1.533 0.97,-2.469 0.344,-1.373 0.565,-2.772 0.779,-4.126 L 47,69.652 c 0.017,-0.092 0.037,-0.186 0.057,-0.276 l 0.044,-0.219 0.027,-0.268 0.14,-1.647 c 0.066,-1.34 -0.201,-2.315 -0.716,-3.644 l -0.13,-0.342 -0.482,-1.13 c -0.007,-0.013 -0.012,-0.023 -0.019,-0.037 -0.037,0.052 -0.074,0.106 -0.111,0.162 l -0.414,0.524 -0.778,0.577 -0.207,0.134 c -0.472,0.317 -0.974,0.52 -1.461,0.717 l -1.057,0.488 -0.343,-0.578 1.148,-0.532 c 0.454,-0.185 0.925,-0.376 1.339,-0.653 l 0.215,-0.141 0.681,-0.497 c 0,-10e-4 0.319,-0.415 0.319,-0.415 0.176,-0.261 0.489,-0.867 0.647,-1.201 l 0.189,-0.438 c 0.345,-0.797 0.576,-1.914 0.673,-2.919 0.011,-0.141 0.024,-0.284 0.033,-0.423 0.003,-0.04 0.007,-0.083 0.009,-0.123 L 46.809,56.7 c 0.088,-1.484 0.049,-2.847 -0.069,-4.065 L 46.483,50.77 c -0.01,-0.061 -0.02,-0.127 -0.03,-0.186 l -0.244,-1.15 c -0.22,-0.927 -0.46,-1.684 -0.673,-2.261 -0.337,-0.675 -0.788,-1.304 -1.283,-1.988 -0.586,-0.815 -1.819,-2.519 -3.187,-3.636 -0.268,-0.198 -0.554,-0.403 -0.841,-0.596 -0.389,-0.226 -0.779,-0.385 -1.162,-0.445 0.148,0.097 0.288,0.201 0.404,0.305 l 0.104,0.091 c 0.354,0.313 0.456,0.415 0.679,0.936 0.317,0.744 0.476,1.589 0.498,2.656 0.001,0.082 0.002,0.163 0.002,0.243 0,0.785 -0.078,1.542 -0.231,2.257 -0.625,2.91 -1.828,4.531 -3.675,4.961 -0.077,2.568 -0.269,5.059 -0.497,7.274 l -0.11,1.849 -0.146,2.188 -0.37,2.053 -0.324,1.716 -0.592,3.276 c -0.278,1.405 -0.565,2.858 -0.736,4.377 -0.066,0.59 -0.124,1.331 -0.124,2.128 m 10.904,14.563 -0.629,0.413 c -1.774,1.16 -3.306,2.163 -4.829,3.645 -1.598,1.557 -2.811,2.978 -3.918,5.251 -0.866,1.781 -1.296,3.729 -1.296,5.71 0,2.556 0.716,5.168 2.127,7.546 1.215,2.045 2.742,3.804 4.671,5.376 1.094,0.893 2.379,1.523 3.621,2.132 0.763,0.375 1.537,0.777 2.281,1.224 -0.038,-0.304 -0.068,-0.611 -0.204,-0.889 l -0.138,-0.376 c -1.785,-4.102 -2.669,-8.377 -2.669,-12.557 0,-5.551 1.559,-10.933 4.633,-15.51 2.181,-3.248 2.483,-7.409 2.776,-11.432 l 0.23,-2.82 c 0.029,-0.287 0.046,-0.572 0.057,-0.855 -0.095,-0.667 -0.189,-1.303 -0.282,-1.903 -0.016,1.083 -0.104,2.11 -0.274,3.025 l -0.298,1.952 c -0.253,1.821 -0.54,3.884 -1.245,5.354 -0.866,1.807 -2.951,3.62 -4.614,4.714 m 6.541,-1.512 c 0.558,-2.432 0.848,-5.152 0.596,-8.403 l -0.041,0.497 c -0.189,2.597 -0.383,5.25 -1.074,7.708 z m -0.778,4.76 c -0.083,0.208 -0.169,0.414 -0.259,0.62 -2.981,6.819 -3.49,11.352 -3.008,15.122 0.046,0.365 0.101,0.747 0.162,1.137 0.324,2.605 0.925,5.288 1.6,7.75 0.059,0.241 0.092,0.376 0.092,0.376 0,0 1.677,6.279 3.275,9.433 0.273,0.572 0.682,1.374 0.872,1.435 0.072,-0.022 0.295,-0.283 0.474,-0.493 l 0.179,-0.208 0.356,-0.406 c 1.535,-1.737 4.728,-5.353 7.783,-12.06 0.864,-1.898 1.224,-3.717 1.224,-5.475 0,-4.53 -2.394,-8.652 -4.731,-12.674 -1.736,-2.989 -3.376,-5.812 -3.913,-8.641 -0.6,-3.158 -1.444,-7.046 -2.242,-10.587 0.061,0.466 0.765,6.307 -0.872,11.629 -0.322,1.045 -0.636,2.06 -0.992,3.042 m 7.106,-1.939 c 0,0 1.4,0.727 1.948,1.033 -2.371,-6.161 -5.474,-14.217 -8.07,-20.954 0.182,0.774 0.352,1.562 0.467,2.383 1.019,4.372 2.432,10.614 3.315,15.267 0.067,0.356 0.156,0.713 0.259,1.071 0.698,0.344 1.397,0.774 2.081,1.2 m -9.78,-25.415 -0.142,1.682 -0.027,0.268 -0.057,0.298 c -0.025,0.12 -0.076,0.343 -0.076,0.464 0,0.024 10e-4,0.043 0.006,0.057 0,-0.009 0.16,0.009 0.16,0.008 l 0.461,0.095 c 0.678,0.342 1.132,0.891 1.57,1.421 0.159,0.192 0.315,0.377 0.477,0.55 -0.042,-0.276 -0.085,-0.554 -0.136,-0.827 -0.243,-1.311 -0.454,-2.073 -1.017,-4.109 l -0.666,-2.429 c -0.42,-1.048 -0.903,-2.31 -1.48,-3.88 -0.119,-0.309 -0.218,-0.566 -0.294,-0.764 -0.042,0.132 -0.074,0.272 -0.126,0.393 0,10e-4 -0.172,0.375 -0.172,0.375 -0.079,0.165 -0.122,0.257 -0.122,0.356 0,0.128 0.073,0.266 0.238,0.58 l 0.516,1.207 0.127,0.335 c 0.483,1.245 0.771,2.248 0.771,3.495 0,0.138 -0.003,0.281 -0.011,0.425 m 8.911,-9.878 0.431,1.263 c 0.349,0.974 0.73,2.041 0.824,3.058 0.504,-1.314 1.139,-2.375 2.396,-3.376 l 0.419,0.525 c -1.578,1.258 -2.077,2.588 -2.709,4.63 -0.117,0.377 -0.189,0.805 -0.254,1.247 0.242,-0.295 0.552,-0.562 1.028,-0.758 0.941,-0.384 1.989,-0.42 3.069,-0.423 l 0.003,0.671 c -1.011,0.004 -1.988,0.036 -2.817,0.374 -0.61,0.249 -0.821,0.508 -1.125,1.002 0,0 -0.867,1.937 -1.028,2.888 0.724,1.671 1.316,3.064 2.066,4.794 -0.141,0.181 1.296,-1.589 1.296,-1.589 0.561,-0.362 1.286,-0.558 1.796,-0.659 l 0.706,-0.128 c 0.94,-0.164 1.752,-0.304 2.598,-0.852 0.683,-0.442 1.278,-1.023 1.799,-1.736 0.11,-0.17 0.213,-0.34 0.336,-0.508 0.042,-0.056 0.079,-0.121 0.119,-0.181 0.452,-0.76 0.839,-1.64 1.157,-2.664 l 0.075,-0.3 0.142,0.027 C 67.959,63.23 66.822,62.074 65.73,61.199 63.919,59.749 61.812,58.336 59.286,56.882 l -1.382,-0.905 c -0.596,-0.414 -1.213,-0.844 -1.878,-1.163 -0.14,-0.067 -0.273,-0.142 -0.409,-0.212 0.514,0.843 0.935,1.804 1.232,2.795 m -2.686,-3.656 c -0.439,-0.296 -0.878,-0.616 -1.334,-0.988 -0.894,-0.73 -2.34,-1.982 -3.204,-2.726 1.099,2.536 3.956,10.028 7.04,17.148 0.066,-0.357 0.491,-1.568 0.54,-1.933 0.008,-0.066 0.02,-0.133 0.028,-0.199 0.009,-0.375 0.047,-0.816 0.047,-0.816 l 0.078,-0.789 0.056,-0.733 c 0.194,-1.14 -0.294,-2.501 -0.767,-3.817 L 56.206,57.59 c -0.392,-1.303 -0.972,-2.649 -2.047,-3.845 z m 7.003,42.013 c 1.485,3.858 2.548,6.626 2.788,7.26 0.717,1.9 1.929,3.365 3.243,3.919 0.88,0.372 1.488,0.349 2.439,-0.066 1.446,-0.631 1.31,-1.054 1.31,-2.3 0,-1.189 -0.461,-2.544 -1.008,-3.846 -0.195,-0.465 -0.939,-2.196 -2.042,-4.747 l -1.72,-3.857 -17.48,-42.801 c -0.507,-0.437 -1.423,-1.24 -2.457,-2.215 0.007,0.019 0.015,0.044 0.022,0.065 0.17,0.377 0.318,0.768 0.41,1.202 l 0.038,0.236 c 0.437,1.601 0.831,3.781 0.831,6.453 0,1.347 -0.105,2.824 -0.351,4.408 0.128,0.333 10.056,26.103 12.634,32.797 z m 46.91,-33.361 -1.559,2.127 -1.682,2.016 -1.614,1.931 -1.261,1.75 -1.606,2.192 -1.475,1.929 c -1.146,1.533 -2.331,3.119 -3.853,4.492 l -1.378,1.268 c -1.402,1.301 -2.853,2.648 -4.425,3.756 -0.732,0.517 -1.541,0.909 -2.325,1.289 l -1.668,0.868 c -0.001,0 -0.383,0.229 -0.383,0.229 l -2.97,1.729 -6.975,3.53 -1.754,1.167 c -1.173,0.841 -3.441,2.409 -4.784,2.696 1.185,2.744 1.99,4.612 2.194,5.099 1.173,2.793 1.952,6.056 -0.653,7.022 -1.153,0.428 -1.913,0.516 -2.969,0.07 -1.481,-0.625 -2.831,-2.233 -3.611,-4.302 -0.269,-0.714 -1.468,-3.85 -3.256,-8.498 l -0.674,-0.318 -2.033,-1.174 c -0.472,-0.295 -0.951,-0.585 -1.426,-0.851 0.748,2.083 1.983,4.214 3.276,6.438 3.175,5.465 6.773,11.658 3.538,18.765 -3.096,6.799 -6.335,10.465 -7.891,12.227 l -0.354,0.402 -0.173,0.203 c -0.372,0.435 -0.665,0.78 -1.082,0.722 -0.459,-0.063 -0.801,-0.546 -1.59,-2.25 -0.264,-0.572 -0.558,-1.341 -0.838,-2.264 -1.575,-4.255 -4.393,-12.868 -4.199,-19.567 0.117,-4.055 1.325,-7.223 2.604,-10.576 0.721,-1.893 1.453,-3.814 1.996,-5.942 -0.061,-0.05 -0.119,-0.102 -0.173,-0.157 -0.022,-0.008 -0.162,-0.057 -0.364,-0.125 -0.389,1.209 -0.91,2.364 -1.629,3.434 -5.263,7.837 -5.973,18.094 -1.9,27.44 l 0.135,0.367 c 0.265,0.539 0.376,1.159 0.32,1.807 l -0.049,0.569 -0.474,-0.319 c -0.868,-0.584 -1.801,-1.042 -2.79,-1.526 -1.276,-0.626 -2.595,-1.274 -3.749,-2.214 -1.99,-1.624 -3.569,-3.441 -4.824,-5.555 -2.621,-4.416 -2.941,-9.61 -0.857,-13.893 1.149,-2.361 2.403,-3.831 4.053,-5.438 1.57,-1.528 3.202,-2.596 4.93,-3.727 l 0.628,-0.412 c 0.784,-0.515 1.663,-1.195 2.451,-1.954 l -0.205,-0.089 c -0.732,-0.315 -1.49,-0.64 -2.22,-1.084 -0.626,-0.379 -1.279,-0.596 -1.972,-0.825 l -1.365,-0.504 c -2.148,-0.958 -4.8,-2.139 -6.362,-3.995 -1.221,-1.449 -1.532,-3.677 -1.532,-5.573 0,-0.818 0.058,-1.575 0.126,-2.18 0.139,-1.226 0.349,-2.401 0.57,-3.543 -0.17,-0.641 -0.237,-1.363 -0.296,-2.069 l -0.179,-1.51 c -0.197,-0.988 -0.269,-2.02 -0.339,-3.017 L 33.071,63.339 33,62.529 c -0.217,-2.428 -0.44,-4.941 -0.437,-7.453 0.003,-2.115 -0.212,-4.324 -0.421,-6.461 l -0.165,-1.742 c -0.163,-1.812 -0.56,-3.564 -0.944,-5.26 l -0.477,-2.184 -0.781,-3.414 c -0.162,-0.746 -0.385,-1.502 -0.7,-2.679 -0.018,-0.065 -0.028,-0.122 -0.04,-0.18 -0.002,-0.008 -0.005,-0.017 -0.006,-0.025 -0.133,-0.665 0.06,-0.875 0.06,-0.875 0.459,-0.957 0.934,-1.947 2.166,-2.387 1.243,-0.443 2.783,-0.221 4,0.475 -0.434,-1.112 -0.827,-2.224 -1.121,-3.407 L 33.352,23.434 C 32.638,19.952 31.759,16.448 30.909,13.06 l -0.398,-1.587 -0.215,-1.011 c -0.039,-0.201 -0.081,-0.395 -0.122,-0.589 -0.003,0.001 -0.007,0.002 -0.01,0.002 -0.654,0 -1.183,-0.529 -1.183,-1.184 0,-0.652 0.529,-1.182 1.183,-1.182 0.653,0 1.183,0.53 1.183,1.182 0,0.329 -0.134,0.625 -0.35,0.839 l 0.784,1.521 2.211,3.537 2.287,3.291 0.237,0.331 c 1.416,1.984 3.02,4.233 4.238,6.681 0.041,0.081 0.08,0.164 0.12,0.246 1.187,0.187 4.874,0.92 6.152,2.963 l 0.276,0.437 c 0.225,0.357 0.443,0.706 0.653,1.059 2.246,-0.24 4.587,1.564 5.95,3.525 0.555,0.798 0.927,1.667 1.287,2.509 l 0.465,1.05 0.529,1.085 1.075,2.31 c 0.361,0.88 0.494,1.31 0.474,1.575 1.149,0.577 2.388,1.084 3.773,1.623 l 3.233,1.421 c 1.762,0.824 3.584,1.673 5.548,2.16 1.499,0.371 3.244,0.461 4.934,0.548 l 0.865,0.047 c 1.662,0.096 3.293,0.01 5.132,-0.269 3.495,-0.532 6.063,-1.159 8.589,-2.101 1.254,-0.466 2.58,-1.015 4.054,-1.675 0.537,-0.242 2.411,-1.277 2.618,-1.506 l 0.902,0.47 0.519,0.421 15.515,12.547 0.429,0.513 c -2.321,1.755 -4.075,4.19 -5.77,6.544"
         style="fill:#231f20;fill-opacity:1;fill-rule:nonzero;stroke:none"
         transform="matrix(1.3333333,0,0,-1.3333333,0,188.976)"
         clip-path="url(#clipPath47)" />
      <path
         id="path48"
         d="m 115.926,52.138 -6.1,6.717 -15.741,-14.81 c 0,0 7.289,-3.821 8.401,-5.717 1.114,-1.896 13.44,13.81 13.44,13.81"
         transform="matrix(1.3333333,0,0,-1.3333333,0,188.976)"
         style="fill:url(#linearGradient48);stroke:none" />
      <path
         id="path49"
         d="m 86.232,46.85 c 1.065,-0.002 2.079,-0.366 3.047,-0.772 1.19,-0.497 2.389,-0.969 3.579,-1.465 0.996,-0.416 2.266,-0.761 3.101,-1.464 -1.002,0.861 -2.023,1.566 -3.275,2.014 -1.682,0.602 -3.414,1.153 -5.149,1.583 -0.181,0.044 -0.31,0.087 -0.505,0.104 -0.094,0.009 -0.591,0 -0.422,0"
         style="fill:#bea7a5;fill-opacity:1;fill-rule:nonzero;stroke:none"
         transform="matrix(1.3333333,0,0,-1.3333333,0,188.976)"
         clip-path="url(#clipPath50)" />
    </g>
  </g>
</svg>
