<?xml version="1.0" standalone="no"?>
<!DOCTYPE svg PUBLIC "-//W3C//DTD SVG 20010904//EN"
 "http://www.w3.org/TR/2001/REC-SVG-20010904/DTD/svg10.dtd">
<svg version="1.0" xmlns="http://www.w3.org/2000/svg"
 width="256.000000pt" height="256.000000pt" viewBox="0 0 256.000000 256.000000"
 preserveAspectRatio="xMidYMid meet">
<metadata>
Created by potrace 1.14, written by Peter Selinger 2001-2017
</metadata>
<g transform="translate(0.000000,256.000000) scale(0.100000,-0.100000)"
fill="#000000" stroke="none">
<path d="M936 2343 c-23 -46 -74 -216 -86 -284 -19 -118 -13 -174 30 -298 22
-63 40 -117 40 -120 0 -3 -20 29 -44 73 -80 144 -91 286 -35 446 28 81 26 83
-41 48 -122 -62 -196 -171 -194 -288 1 -102 43 -170 162 -257 l75 -56 -54 -24
c-101 -43 -144 -70 -167 -104 -21 -30 -23 -43 -20 -144 1 -60 -1 -137 -5 -170
-4 -33 -9 -112 -12 -175 -6 -127 -14 -184 -49 -334 -15 -63 -15 -71 0 -93 13
-21 22 -24 55 -21 26 2 38 0 35 -7 -2 -7 -21 -83 -41 -171 -20 -87 -43 -169
-51 -182 -8 -12 -12 -27 -9 -32 7 -12 35 -13 36 -2 4 37 20 69 95 180 48 70
91 128 98 130 42 12 88 38 101 58 9 13 24 24 35 24 37 0 87 57 121 139 37 86
17 71 203 149 112 46 285 37 428 -23 35 -15 77 -32 93 -38 17 -6 51 -26 77
-44 l48 -33 41 37 c23 21 75 77 116 125 l74 88 -20 26 c-12 15 -21 32 -21 39
0 6 -10 20 -21 31 -21 19 -80 93 -213 268 -123 163 -193 218 -401 319 -30 14
-124 70 -173 103 -2 2 8 32 23 69 16 41 25 80 23 103 -3 34 -6 38 -41 46 -35
9 -40 7 -67 -20 -17 -16 -44 -67 -64 -119 -26 -68 -41 -94 -63 -107 -50 -30
-52 -36 40 132 78 143 80 217 12 349 -42 81 -126 191 -146 191 -4 0 -15 -12
-23 -27z"/>
</g>
</svg>
